<svg width="222.000244" height="33.991211" viewBox="0 0 222 33.9912" fill="none" xmlns="http://www.w3.org/2000/svg" xmlns:xlink="http://www.w3.org/1999/xlink">

	<rect id="logo" width="222.000244" height="33.991211" fill="#FFFFFF" fill-opacity="0"/>
	<path d="M55.12 25.8C54.73 25.57 54.3 25.23 53.98 24.94C53.46 24.44 53.03 23.86 52.69 23.18C52.13 22.08 51.85 20.82 51.85 19.39L51.85 14.61C51.85 13.18 52.13 11.92 52.69 10.82C53.03 10.15 53.53 9.5 54.04 9.01C54.37 8.7 54.73 8.44 55.12 8.21C55.21 8.15 55.38 8.06 55.47 8.01C56.42 7.52 57.5 7.28 58.69 7.28C59.51 7.28 60.35 7.43 61.07 7.69C61.32 7.78 61.57 7.89 61.81 8.01C62.16 8.2 62.5 8.41 62.81 8.65C62.83 8.66 62.89 8.71 62.91 8.73C63.39 9.11 63.82 9.56 64.19 10.08C64.24 10.15 64.33 10.29 64.38 10.36C64.9 11.17 65.27 12.09 65.46 13.12L65.65 14.1L61.56 14.1L61.39 13.5C61.32 13.24 61.22 13.01 61.09 12.78C61.01 12.63 60.91 12.48 60.79 12.35C60.58 12.09 60.34 11.88 60.07 11.71C59.99 11.66 59.9 11.61 59.82 11.57C59.55 11.44 59.28 11.36 59 11.32C58.9 11.31 58.8 11.31 58.69 11.31C58.21 11.31 57.78 11.41 57.42 11.61C57.37 11.63 57.32 11.66 57.27 11.69C57.19 11.75 57.1 11.81 57.02 11.88C56.74 12.12 56.51 12.42 56.33 12.8C56.09 13.31 55.97 13.91 55.97 14.61L55.97 19.39C55.97 20.09 56.09 20.69 56.33 21.2C56.51 21.59 56.75 21.9 57.04 22.14C57.12 22.2 57.19 22.26 57.27 22.31C57.31 22.33 57.35 22.36 57.39 22.38C57.77 22.59 58.2 22.69 58.69 22.69C58.88 22.69 59.06 22.67 59.24 22.63C59.45 22.59 59.65 22.53 59.84 22.44C59.9 22.41 59.97 22.38 60.03 22.34C60.31 22.19 60.58 21.96 60.82 21.67C61.08 21.35 61.27 20.96 61.39 20.51L61.55 19.89L65.65 19.89L65.46 20.87C65.27 21.88 64.87 22.85 64.36 23.66C64.3 23.74 64.24 23.83 64.18 23.92C63.8 24.45 63.36 24.9 62.87 25.29C62.85 25.3 62.78 25.36 62.76 25.37C62.46 25.6 62.14 25.8 61.79 25.98C61.57 26.1 61.33 26.2 61.1 26.29C61.05 26.3 60.95 26.34 60.9 26.36C60.21 26.59 59.47 26.71 58.69 26.71C57.49 26.71 56.32 26.43 55.36 25.93C55.28 25.89 55.2 25.84 55.12 25.8ZM88.42 25.81C87.98 25.55 87.5 25.18 87.15 24.84C86.68 24.38 86.28 23.84 85.96 23.22C85.39 22.13 85.11 20.88 85.11 19.47L85.11 14.53C85.11 13.11 85.39 11.86 85.96 10.77C86.28 10.15 86.76 9.54 87.23 9.07C87.58 8.74 87.98 8.44 88.42 8.19C88.49 8.15 88.64 8.07 88.71 8.03C89.69 7.53 90.79 7.28 92.02 7.28C93.24 7.28 94.42 7.57 95.4 8.07C95.47 8.11 95.54 8.15 95.61 8.19C96.05 8.44 96.53 8.81 96.88 9.15C97.35 9.61 97.75 10.15 98.07 10.77C98.64 11.86 98.92 13.11 98.92 14.53L98.92 19.47C98.92 20.88 98.64 22.13 98.07 23.22C97.75 23.84 97.28 24.45 96.81 24.92C96.45 25.26 96.05 25.55 95.62 25.81C95.54 25.85 95.4 25.93 95.32 25.96C94.35 26.46 93.24 26.71 92.02 26.71C90.79 26.71 89.61 26.42 88.63 25.92C88.56 25.89 88.49 25.85 88.42 25.81ZM176.95 25.81C176.51 25.55 176.05 25.19 175.69 24.85C175.22 24.38 174.82 23.84 174.5 23.22C173.93 22.13 173.65 20.88 173.65 19.47L173.65 14.53C173.65 13.11 173.93 11.86 174.5 10.77C174.82 10.16 175.21 9.62 175.68 9.15C175.7 9.14 175.75 9.08 175.77 9.07C176.12 8.73 176.52 8.44 176.95 8.19C177.02 8.15 177.17 8.07 177.25 8.03C178.22 7.53 179.33 7.28 180.55 7.28C181.78 7.28 182.96 7.57 183.94 8.07C184.01 8.11 184.08 8.15 184.15 8.19C184.59 8.44 185.06 8.8 185.42 9.14C185.89 9.61 186.29 10.15 186.61 10.77C187.17 11.86 187.46 13.11 187.46 14.53L187.46 19.47C187.46 20.88 187.17 22.13 186.61 23.22C186.29 23.84 185.82 24.45 185.35 24.91C184.99 25.25 184.59 25.55 184.15 25.81C184.08 25.85 183.93 25.93 183.86 25.96C182.88 26.46 181.78 26.71 180.55 26.71C179.32 26.71 178.15 26.42 177.17 25.92C177.1 25.89 177.03 25.85 176.95 25.81ZM193.59 25.02C193.58 25.01 193.52 24.95 193.5 24.94C192.99 24.45 192.56 23.86 192.21 23.18C191.65 22.08 191.37 20.82 191.37 19.39L191.37 14.61C191.37 13.18 191.65 11.92 192.21 10.82C192.56 10.14 193.05 9.5 193.57 9.01C193.89 8.7 194.25 8.44 194.64 8.21C194.73 8.15 194.9 8.06 194.99 8.01C195.95 7.52 197.02 7.28 198.22 7.28C199.03 7.28 199.81 7.41 200.54 7.67C200.56 7.68 200.62 7.7 200.64 7.71C200.88 7.8 201.1 7.9 201.33 8.01C201.68 8.2 202.02 8.41 202.33 8.65C202.35 8.66 202.42 8.72 202.44 8.73C202.92 9.11 203.34 9.56 203.71 10.08C203.76 10.15 203.85 10.29 203.9 10.36C204.42 11.17 204.79 12.09 204.99 13.12L205.17 14.1L201.08 14.1L200.91 13.5C200.84 13.24 200.74 13.01 200.62 12.78C200.53 12.63 200.43 12.48 200.31 12.35C200.1 12.09 199.86 11.88 199.59 11.71C199.51 11.66 199.43 11.61 199.34 11.57C199.07 11.44 198.8 11.36 198.53 11.32C198.42 11.31 198.32 11.31 198.22 11.31C197.73 11.31 197.31 11.41 196.94 11.61C196.89 11.63 196.84 11.66 196.8 11.69C196.72 11.74 196.61 11.82 196.54 11.88C196.26 12.12 196.03 12.42 195.85 12.8C195.61 13.31 195.49 13.91 195.49 14.61L195.49 19.39C195.49 20.09 195.61 20.69 195.85 21.2C196.03 21.59 196.27 21.9 196.57 22.14C196.64 22.2 196.71 22.26 196.79 22.31C196.83 22.33 196.87 22.36 196.92 22.38C197.29 22.59 197.72 22.69 198.22 22.69C198.4 22.69 198.59 22.67 198.76 22.63C198.97 22.59 199.17 22.53 199.36 22.44C199.43 22.41 199.49 22.38 199.55 22.34C199.83 22.19 200.1 21.96 200.34 21.67C200.6 21.35 200.79 20.96 200.91 20.51L201.07 19.89L205.17 19.89L204.99 20.87C204.79 21.88 204.4 22.85 203.88 23.65C203.85 23.71 203.81 23.76 203.78 23.81C203.75 23.84 203.73 23.88 203.7 23.91C203.32 24.45 202.84 24.94 202.35 25.32C202.31 25.35 202.27 25.39 202.23 25.42C201.94 25.63 201.64 25.82 201.31 25.98C201.07 26.11 200.81 26.22 200.55 26.31C200.53 26.32 200.45 26.35 200.43 26.36C199.73 26.59 198.99 26.71 198.22 26.71C197.01 26.71 195.85 26.43 194.89 25.93C194.8 25.89 194.72 25.84 194.64 25.8C194.26 25.57 193.91 25.31 193.59 25.02ZM209.99 25.67C209.91 25.62 209.82 25.58 209.73 25.53C209.12 25.21 208.55 24.81 208.01 24.36L207.4 23.84L209.95 20.69L210.58 21.25C211.03 21.63 211.5 21.95 212.01 22.19C212.17 22.26 212.34 22.33 212.51 22.39C213.21 22.64 213.98 22.77 214.82 22.77C215.91 22.77 216.73 22.58 217.28 22.21C217.5 22.06 217.66 21.89 217.77 21.69C217.9 21.47 217.96 21.2 217.96 20.89C217.96 20.51 217.84 20.18 217.66 19.95C217.44 19.72 217.17 19.55 216.82 19.43C216.37 19.27 215.77 19.13 215.01 18.99C214.96 18.98 214.87 18.97 214.82 18.96L214.67 18.93C213.48 18.72 212.5 18.48 211.73 18.22C211.51 18.14 211.23 18.01 211.02 17.9C210.44 17.58 209.93 17.14 209.49 16.57C208.86 15.76 208.54 14.63 208.54 13.21C208.54 12.09 208.78 11.1 209.25 10.25C209.29 10.17 209.34 10.09 209.39 10.01C209.51 9.81 209.7 9.56 209.85 9.39C210.38 8.78 211.05 8.3 211.86 7.95C212.89 7.5 214.1 7.28 215.51 7.28C215.94 7.28 216.4 7.32 216.83 7.38C217.06 7.41 217.29 7.45 217.52 7.51C218.17 7.65 218.82 7.87 219.45 8.17C220.08 8.46 220.7 8.82 221.31 9.26L221.97 9.74L219.64 13.02L218.97 12.53C218.37 12.08 217.78 11.75 217.2 11.54C216.73 11.36 216.25 11.26 215.77 11.23C215.68 11.22 215.59 11.22 215.51 11.22C214.5 11.22 213.74 11.41 213.22 11.78C213.05 11.91 212.91 12.05 212.81 12.22C212.66 12.47 212.58 12.78 212.58 13.15C212.58 13.5 212.71 13.82 212.87 14.01C213.11 14.25 213.42 14.43 213.79 14.55C214.26 14.7 214.95 14.87 215.85 15.04C215.9 15.05 215.95 15.06 215.99 15.07C216.02 15.08 216.05 15.08 216.08 15.09C216.14 15.1 216.19 15.11 216.24 15.12C217.34 15.34 218.27 15.61 219.02 15.93C219.28 16.04 219.52 16.17 219.75 16.31C219.77 16.32 219.84 16.37 219.85 16.38C220.34 16.71 220.77 17.13 221.13 17.64C221.71 18.44 222 19.51 222 20.85C222 21.93 221.72 22.96 221.26 23.78C221.21 23.86 221.16 23.95 221.11 24.03C221.01 24.17 220.86 24.37 220.75 24.51C220.19 25.17 219.46 25.68 218.57 26.06C217.52 26.49 216.27 26.71 214.82 26.71C213.93 26.71 213.08 26.63 212.28 26.45C211.46 26.28 210.7 26.02 209.99 25.67ZM82.27 22.57L73.57 22.57L73.57 7.46L69.51 7.46L69.51 26.53L82.27 26.53L82.27 22.57ZM105.02 25.01C105.01 25 104.95 24.95 104.94 24.94C104.46 24.47 104.07 23.91 103.75 23.28C103.22 22.19 102.95 20.9 102.95 19.41L102.95 7.46L107.01 7.46L107.01 19.49C107.01 20.55 107.26 21.35 107.75 21.89C107.82 21.96 107.9 22.04 107.99 22.11C108.44 22.48 109.06 22.66 109.85 22.66C110.64 22.66 111.27 22.48 111.73 22.1C111.81 22.03 111.89 21.96 111.96 21.88C112.46 21.35 112.7 20.55 112.7 19.49L112.7 7.46L116.76 7.46L116.76 19.41C116.76 20.9 116.5 22.19 115.96 23.28C115.65 23.91 115.2 24.52 114.72 24.98C114.37 25.32 113.98 25.61 113.54 25.85C112.5 26.42 111.27 26.71 109.85 26.71C108.43 26.71 107.2 26.42 106.17 25.85C105.75 25.61 105.37 25.33 105.02 25.01ZM121.39 7.46L127.7 7.46C129.22 7.46 130.52 7.73 131.62 8.28C132.26 8.59 132.88 9.06 133.35 9.55C133.69 9.9 133.98 10.31 134.23 10.75C134.81 11.81 135.1 13.07 135.1 14.53L135.1 19.47C135.1 20.93 134.81 22.19 134.23 23.24C133.99 23.68 133.63 24.15 133.3 24.5C132.83 24.99 132.27 25.4 131.61 25.72C130.51 26.26 129.2 26.53 127.69 26.53L121.39 26.53L121.39 7.46ZM152.58 8.08L147.28 16.81L153.23 26.53L148.58 26.53L145.07 20.56L141.6 26.53L136.95 26.53L142.83 16.82L137.08 7.46L141.74 7.46L145.05 13.08L148.32 7.46L148.78 7.46L152.96 7.46L152.58 8.08ZM156.02 7.46L162.33 7.46C163.85 7.46 165.16 7.73 166.25 8.28C166.89 8.59 167.45 8.99 167.92 9.48C167.94 9.49 168 9.57 168.02 9.58C168.34 9.93 168.62 10.32 168.86 10.75C169.44 11.81 169.74 13.07 169.74 14.53L169.74 19.47C169.74 20.93 169.44 22.19 168.86 23.24C168.62 23.67 168.27 24.14 167.94 24.49C167.47 24.99 166.9 25.39 166.25 25.72C165.14 26.26 163.84 26.53 162.32 26.53L156.02 26.53L156.02 7.46ZM94.44 21.25C94.68 20.77 94.8 20.2 94.8 19.55L94.8 14.44C94.8 13.79 94.68 13.22 94.44 12.74C94.29 12.44 94.1 12.18 93.87 11.98C93.75 11.87 93.61 11.77 93.44 11.67C93.04 11.44 92.56 11.33 92.02 11.33C91.58 11.33 91.18 11.41 90.81 11.57C90.72 11.61 90.62 11.65 90.53 11.7C90.5 11.72 90.47 11.74 90.44 11.76C90.35 11.83 90.25 11.9 90.17 11.98C89.93 12.18 89.74 12.44 89.59 12.74C89.35 13.22 89.23 13.79 89.23 14.44L89.23 19.55C89.23 20.2 89.35 20.77 89.59 21.25C89.74 21.55 89.93 21.81 90.17 22.02C90.28 22.12 90.42 22.22 90.59 22.32C90.99 22.55 91.47 22.66 92.02 22.66C92.45 22.66 92.85 22.58 93.22 22.43C93.32 22.39 93.48 22.29 93.57 22.24C93.68 22.17 93.77 22.1 93.87 22.02C94.1 21.81 94.29 21.55 94.44 21.25ZM182.4 22.02C182.64 21.81 182.83 21.55 182.98 21.25C183.22 20.77 183.34 20.2 183.34 19.55L183.34 14.44C183.34 13.79 183.22 13.22 182.98 12.74C182.83 12.44 182.64 12.18 182.4 11.98C182.29 11.87 182.15 11.77 181.98 11.67C181.58 11.44 181.1 11.33 180.55 11.33C180.12 11.33 179.71 11.41 179.35 11.57C179.25 11.61 179.16 11.65 179.07 11.7C179.04 11.72 179.02 11.74 178.99 11.76C178.89 11.82 178.79 11.89 178.7 11.98C178.47 12.18 178.28 12.44 178.13 12.74C177.89 13.22 177.77 13.79 177.77 14.44L177.77 19.55C177.77 20.2 177.89 20.77 178.13 21.25C178.28 21.55 178.47 21.81 178.7 22.02C178.82 22.12 178.96 22.22 179.13 22.32C179.53 22.55 180.01 22.66 180.55 22.66C180.99 22.66 181.39 22.58 181.76 22.43C181.85 22.39 182.02 22.29 182.11 22.24C182.22 22.17 182.31 22.1 182.4 22.02ZM127.77 22.57L125.45 22.57L125.45 11.43L127.77 11.43C128.82 11.43 129.63 11.69 130.19 12.21C130.26 12.27 130.32 12.34 130.38 12.42C130.78 12.91 130.99 13.58 130.99 14.43L130.99 19.56C130.99 20.41 130.78 21.09 130.38 21.58C130.32 21.65 130.25 21.73 130.17 21.81C129.62 22.31 128.82 22.57 127.77 22.57ZM162.4 22.57L160.08 22.57L160.08 11.43L162.4 11.43C163.46 11.43 164.26 11.69 164.82 12.21C164.89 12.27 164.95 12.34 165.02 12.42C165.42 12.91 165.62 13.58 165.62 14.43L165.62 19.56C165.62 20.41 165.42 21.09 165.02 21.58C164.95 21.65 164.88 21.73 164.8 21.81C164.26 22.31 163.46 22.57 162.4 22.57Z" fill="#7182A6" fill-opacity="1.000000" fill-rule="evenodd"/>
	<path  d="M31.64 21.45L20.91 21.45C18.7 21.45 16.91 19.65 16.91 17.45L16.91 4.02C16.91 1.82 18.7 0.02 20.91 0.02L26.28 0.02L29.15 0.02C30.3 0.02 31.4 0.52 32.16 1.39L34.66 4.25C35.29 4.98 35.64 5.91 35.64 6.88L35.64 10.74L35.64 17.45C35.64 19.65 33.85 21.45 31.64 21.45Z" fill="#17C1FF" fill-opacity="1.000000" fill-rule="evenodd"/>
	<path  d="M20.81 6.08L31.16 6.08C31.72 6.08 32.17 6.54 32.17 7.09C32.17 7.65 31.72 8.1 31.16 8.1L20.81 8.1C20.25 8.1 19.8 7.65 19.8 7.09C19.8 6.54 20.25 6.08 20.81 6.08Z" fill="#FFFFFF" fill-opacity="1.000000" fill-rule="evenodd"/>
	<path  d="M20.81 10.53L31.16 10.53C31.72 10.53 32.17 10.98 32.17 11.54C32.17 12.09 31.72 12.55 31.16 12.55L20.81 12.55C20.25 12.55 19.8 12.09 19.8 11.54C19.8 10.98 20.25 10.53 20.81 10.53Z" fill="#FFFFFF" fill-opacity="1.000000" fill-rule="evenodd"/>
	<path  d="M20.81 14.97L31.16 14.97C31.72 14.97 32.17 15.42 32.17 15.98C32.17 16.54 31.72 16.99 31.16 16.99L20.81 16.99C20.25 16.99 19.8 16.54 19.8 15.98C19.8 15.42 20.25 14.97 20.81 14.97Z" fill="#FFFFFF" fill-opacity="1.000000" fill-rule="evenodd"/>
	<linearGradient x1="23.480869" y1="0.000000" x2="6.409857" y2="33.991207" id="paint_linear_1718_1244_0" gradientUnits="userSpaceOnUse">
		<stop stop-color="#256BFF"/>
		<stop offset="1.000000" stop-color="#C317FF"/>
	</linearGradient>
	<path  d="M12.28 9.82C5.5 9.82 0 14.7 0 20.72C0 24.61 2.28 28.02 5.73 29.95C4.82 32.19 3.73 33.99 3.73 33.99C6.06 33 7.54 32.16 8.64 31.14C9.79 31.46 11.01 31.63 12.28 31.63C19.07 31.63 24.57 26.75 24.57 20.72C24.57 14.7 19.07 9.82 12.28 9.82Z" fill="url(#paint_linear_1718_1244_0)" fill-opacity="1.000000" fill-rule="evenodd"/>
	<path  d="M6.06 5.85L7.83 6.32C6.64 6.92 5.24 8.02 3.95 9.93C2.48 8.01 1.65 5.71 2.15 3.61L3.4 4.65C5.6 0.56 10.78 -0.36 12.92 0.11C9.92 0.71 7.07 2.18 6.06 5.85Z" fill="#2F72FF" fill-opacity="1.000000" fill-rule="evenodd"/>
	<path  d="M27.88 27.74L26.16 27.08C27.41 26.61 28.92 25.66 30.41 23.91C31.66 25.98 32.24 28.35 31.53 30.39L30.39 29.22C27.77 33.05 22.53 33.41 20.45 32.71C23.49 32.43 26.49 31.28 27.88 27.74Z" fill="#17C1FF" fill-opacity="1.000000" fill-rule="evenodd"/>
	<path  d="M13.97 23.85C14.19 24.45 13.74 25.09 13.1 25.09C12.69 25.09 12.34 24.83 12.21 24.45L11.78 23.13L8.66 23.13L8.24 24.45C8.11 24.83 7.76 25.09 7.36 25.09C6.72 25.09 6.28 24.46 6.5 23.86L8.82 17.53C9.04 16.92 9.62 16.52 10.26 16.52C10.91 16.52 11.48 16.93 11.7 17.53L13.97 23.85ZM11.35 21.72L10.37 18.74C10.31 18.56 10.27 18.31 10.24 18L10.19 18C10.17 18.25 10.12 18.49 10.04 18.72L9.06 21.72L11.35 21.72Z" fill="#FFFFFF" fill-opacity="1.000000" fill-rule="nonzero"/>
	<path  d="M17.32 17.43L17.32 24.18C17.32 24.68 16.92 25.09 16.41 25.09C15.91 25.09 15.5 24.68 15.5 24.18L15.5 17.43C15.5 16.93 15.91 16.52 16.41 16.52C16.92 16.52 17.32 16.93 17.32 17.43Z" fill="#FFFFFF" fill-opacity="1.000000" fill-rule="nonzero"/>
</svg>
